<svg xmlns="http://www.w3.org/2000/svg" viewBox="0 0 192 192">
  <defs>
    <linearGradient id="grad1" x1="0%" y1="0%" x2="100%" y2="100%">
      <stop offset="0%" style="stop-color:#6d28d9;stop-opacity:1" />
      <stop offset="100%" style="stop-color:#c084fc;stop-opacity:1" />
    </linearGradient>
    <linearGradient id="grad2" x1="0%" y1="0%" x2="0%" y2="100%">
      <stop offset="0%" style="stop-color:#ffffff;stop-opacity:0.98" />
      <stop offset="100%" style="stop-color:#f5f3ff;stop-opacity:0.92" />
    </linearGradient>
    <filter id="shadow" x="-20%" y="-20%" width="140%" height="140%">
      <feDropShadow dx="0" dy="8" stdDeviation="10" flood-color="#3b0764" flood-opacity="0.22" />
    </filter>
  </defs>

  <rect width="192" height="192" rx="44" fill="url(#grad1)" />

  <circle cx="96" cy="96" r="56" fill="white" opacity="0.10" />
  <circle cx="96" cy="96" r="72" fill="white" opacity="0.06" />

  <g filter="url(#shadow)">
    <path d="M96 38L50 74v6h92v-6L96 38z" fill="url(#grad2)" />
    <rect x="58" y="80" width="76" height="56" rx="12" fill="url(#grad2)" />
    <rect x="86" y="100" width="20" height="36" rx="5" fill="#7c3aed" opacity="0.86" />
    <rect x="69" y="89" width="12" height="12" rx="3" fill="#8b5cf6" opacity="0.88" />
    <rect x="111" y="89" width="12" height="12" rx="3" fill="#8b5cf6" opacity="0.88" />
    <rect x="69" y="108" width="12" height="12" rx="3" fill="#8b5cf6" opacity="0.88" />
    <rect x="111" y="108" width="12" height="12" rx="3" fill="#8b5cf6" opacity="0.88" />
    <path d="M76 136c5.5-5 13.5-8 20-8s14.5 3 20 8" fill="none" stroke="#ede9fe" stroke-width="4" stroke-linecap="round" opacity="0.8" />
  </g>
</svg>